<?xml version="1.0" encoding="UTF-8" ?>
<!DOCTYPE svg PUBLIC "-//W3C//DTD SVG 1.1//EN" "http://www.w3.org/Graphics/SVG/1.1/DTD/svg11.dtd">
<svg width="1021pt" height="1021pt" viewBox="0 0 1021 1021" version="1.1" xmlns="http://www.w3.org/2000/svg">
<g id="#d91920ff">
<path fill="#d91920" opacity="1.00" d=" M 72.75 261.51 C 127.13 261.43 181.51 261.60 235.89 261.43 C 236.14 427.24 235.94 593.06 235.99 758.88 C 213.87 758.87 191.75 758.88 169.63 758.87 C 169.62 615.22 169.63 471.56 169.63 327.90 C 137.34 327.83 105.05 327.90 72.75 327.87 C 72.74 305.75 72.75 283.63 72.75 261.51 Z" />
<path fill="#d91920" opacity="1.00" d=" M 450.16 273.23 C 495.88 258.79 545.82 258.05 591.97 271.08 C 655.39 288.70 710.72 332.91 742.25 390.65 C 761.91 426.23 772.48 466.74 772.83 507.38 C 750.85 507.36 728.87 507.39 706.90 507.37 C 706.47 484.61 701.95 461.90 693.24 440.86 C 680.10 408.78 657.54 380.68 629.18 360.77 C 598.93 339.42 562.02 327.60 524.97 327.74 C 489.29 327.50 453.67 338.30 424.01 358.11 C 396.05 376.67 373.36 403.05 359.26 433.51 C 342.85 468.66 338.28 509.14 346.28 547.08 C 352.82 578.66 368.12 608.33 389.87 632.13 C 412.77 657.28 442.74 676.27 475.83 684.58 C 493.99 689.04 512.59 691.68 531.25 692.83 C 558.16 693.64 585.08 693.30 612.00 693.38 C 748.33 693.37 884.67 693.37 1021.00 693.38 L 1021.00 759.00 C 880.01 759.00 739.03 759.00 598.04 759.00 C 573.40 758.96 548.76 759.25 524.14 758.24 C 509.65 757.29 495.23 755.44 480.93 752.90 C 465.13 750.00 449.33 746.47 434.43 740.32 C 370.99 716.57 319.28 664.56 294.18 601.82 C 277.63 560.87 272.62 515.42 279.39 471.80 C 286.31 426.40 306.39 383.16 336.38 348.40 C 366.36 313.44 406.20 287.01 450.16 273.23 Z" />
<path fill="#d91920" opacity="1.00" d=" M 895.56 266.73 C 907.30 264.71 919.87 267.30 929.53 274.38 C 939.10 281.21 945.51 292.24 946.78 303.93 C 948.34 316.63 944.01 329.91 935.18 339.18 C 926.99 347.96 915.01 353.00 903.02 352.77 C 888.91 352.81 875.19 345.29 867.31 333.65 C 859.70 322.80 857.51 308.35 861.72 295.77 C 866.52 280.83 880.13 269.34 895.56 266.73 M 896.56 273.80 C 884.47 276.03 873.73 284.67 869.20 296.12 C 864.58 307.53 866.52 321.23 873.95 331.01 C 884.21 345.15 905.08 349.83 920.41 341.43 C 935.84 333.81 943.79 314.32 938.13 298.06 C 932.79 281.17 913.90 270.14 896.56 273.80 Z" />
<path fill="#d91920" opacity="1.00" d=" M 888.00 287.50 C 894.31 287.50 900.62 287.49 906.93 287.50 C 911.48 287.50 916.56 288.80 919.34 292.70 C 923.43 298.36 921.56 307.89 914.17 309.67 C 915.89 310.57 917.74 311.53 918.66 313.36 C 921.37 318.70 919.00 325.19 921.57 330.56 C 918.69 330.48 915.81 330.57 912.95 330.35 C 910.63 325.69 913.64 319.82 910.48 315.48 C 906.66 311.81 900.88 313.31 896.12 313.01 C 896.12 318.83 896.12 324.66 896.13 330.49 C 893.42 330.50 890.71 330.51 888.02 330.51 C 887.98 316.17 888.01 301.84 888.00 287.50 M 896.13 293.13 C 896.12 297.63 896.11 302.13 896.14 306.63 C 900.68 306.38 905.44 307.28 909.83 305.76 C 914.53 303.86 914.51 296.02 909.79 294.16 C 905.45 292.47 900.66 293.34 896.13 293.13 Z" />
<path fill="#d91920" opacity="1.00" d=" M 0.00 360.87 C 45.46 360.82 90.92 360.98 136.37 360.80 C 136.68 376.20 136.41 391.61 136.50 407.01 C 136.50 524.29 136.50 641.58 136.50 758.86 C 115.25 758.89 94.00 758.87 72.76 758.87 C 72.74 647.50 72.76 536.13 72.75 424.76 C 48.50 424.74 24.25 424.75 0.00 424.75 L 0.00 360.87 Z" />
<path fill="#d91920" opacity="1.00" d=" M 441.17 395.21 C 469.03 374.75 504.56 365.24 538.93 368.81 C 573.88 372.14 607.22 389.22 630.47 415.50 C 652.97 440.50 665.91 473.74 666.41 507.36 C 645.28 507.39 624.14 507.38 603.01 507.37 C 602.31 484.46 591.04 462.16 572.91 448.13 C 559.14 437.25 541.59 431.25 524.03 431.48 C 507.08 431.53 490.23 437.37 476.84 447.75 C 463.45 458.02 453.51 472.73 449.06 489.02 C 444.78 504.43 445.39 521.16 450.81 536.21 C 456.88 553.28 469.14 568.02 484.74 577.21 C 500.26 586.15 518.45 588.26 536.02 589.38 C 554.34 589.93 572.68 589.70 591.01 589.75 C 734.34 589.75 877.67 589.75 1021.00 589.75 L 1021.00 653.25 C 915.00 653.25 809.01 653.25 703.01 653.25 C 651.34 653.11 599.68 653.56 548.01 652.96 C 526.94 652.98 505.80 650.78 485.31 645.79 C 451.92 636.62 422.63 614.07 404.27 584.82 C 384.98 554.37 378.34 516.37 385.71 481.12 C 392.62 446.89 412.90 415.68 441.17 395.21 Z" />
</g>
</svg>
